HIERARCHY
ROOT Hips
{
	OFFSET 0.000000 83.214638 0.000000
	CHANNELS 6 Xposition Yposition Zposition Xrotation Yrotation Zrotation
	JOINT Pelvis
	{
		OFFSET 0.000000 0.000000 0.000000
		CHANNELS 3 Xrotation Yrotation Zrotation
		JOINT LeftUpLeg
		{
			OFFSET 8.479700 -4.795502 -0.379100
			CHANNELS 3 Xrotation Yrotation Zrotation
			JOINT LeftLeg
			{
				OFFSET 0.024144 -32.555107 0.112900
				CHANNELS 3 Xrotation Yrotation Zrotation
				JOINT LeftFoot
				{
					OFFSET -0.024144 -32.638630 -3.012600
					CHANNELS 3 Xrotation Yrotation Zrotation
					JOINT LeftToeBase
					{
						OFFSET 0.970200 -13.225400 11.864200
						CHANNELS 3 Xrotation Yrotation Zrotation
						End Site
						{
							OFFSET 0.000000 12.319262 0.000000
						}
					}
					JOINT LFootTongue
					{
						OFFSET 1.142400 -1.059800 6.665200
						CHANNELS 3 Xrotation Yrotation Zrotation
						End Site
						{
							OFFSET 0.000000 12.319262 0.000000
						}
					}
				}
				JOINT LeftPantLeg
				{
					OFFSET 0.918482 -16.533964 -2.284700
					CHANNELS 3 Xrotation Yrotation Zrotation
					End Site
					{
						OFFSET 0.350399 24.744368 0.000000
					}
				}
			}
		}
		JOINT RightUpLeg
		{
			OFFSET -8.479700 -4.795502 -0.379100
			CHANNELS 3 Xrotation Yrotation Zrotation
			JOINT RightLeg
			{
				OFFSET -0.023144 -32.555092 0.112900
				CHANNELS 3 Xrotation Yrotation Zrotation
				JOINT RightFoot
				{
					OFFSET 0.023144 -32.638641 -3.012700
					CHANNELS 3 Xrotation Yrotation Zrotation
					JOINT RightToeBase
					{
						OFFSET -0.970200 -13.225400 11.864200
						CHANNELS 3 Xrotation Yrotation Zrotation
						End Site
						{
							OFFSET 0.000000 12.319244 0.000000
						}
					}
					JOINT RFootTongue
					{
						OFFSET -1.142200 -1.059800 6.665200
						CHANNELS 3 Xrotation Yrotation Zrotation
						End Site
						{
							OFFSET 0.000000 12.319243 0.000000
						}
					}
				}
				JOINT RightPantLeg
				{
					OFFSET -0.919482 -16.533978 -2.284800
					CHANNELS 3 Xrotation Yrotation Zrotation
					End Site
					{
						OFFSET -0.350400 24.744419 0.000000
					}
				}
			}
		}
	}
	JOINT Spine
	{
		OFFSET 0.000000 7.722000 1.166200
		CHANNELS 3 Xrotation Yrotation Zrotation
		JOINT Spine1
		{
			OFFSET 0.000000 12.024101 0.248800
			CHANNELS 3 Xrotation Yrotation Zrotation
			JOINT Spine2
			{
				OFFSET 0.000000 11.502998 -0.491200
				CHANNELS 3 Xrotation Yrotation Zrotation
				JOINT Neck
				{
					OFFSET 0.000000 18.430702 -3.123100
					CHANNELS 3 Xrotation Yrotation Zrotation
					JOINT Head
					{
						OFFSET 0.000000 9.051102 1.034000
						CHANNELS 3 Xrotation Yrotation Zrotation
						JOINT HairB
						{
							OFFSET 0.208400 24.786102 24.822300
							CHANNELS 3 Xrotation Yrotation Zrotation
							End Site
							{
								OFFSET 0.000000 32.263779 0.000000
							}
						}
						JOINT HairA
						{
							OFFSET -7.081100 24.428299 23.196600
							CHANNELS 3 Xrotation Yrotation Zrotation
							End Site
							{
								OFFSET 0.000000 32.263779 0.000000
							}
						}
						JOINT Hat
						{
							OFFSET 16.728800 15.048294 -15.439601
							CHANNELS 3 Xrotation Yrotation Zrotation
							End Site
							{
								OFFSET 0.000000 32.263779 0.000000
							}
						}
					}
				}
				JOINT LeftShoulder
				{
					OFFSET 6.197800 13.665199 -4.064700
					CHANNELS 3 Xrotation Yrotation Zrotation
					JOINT LeftArm
					{
						OFFSET 7.778100 -0.187103 -1.709300
						CHANNELS 3 Xrotation Yrotation Zrotation
						JOINT LeftForeArm
						{
							OFFSET 22.049376 0.000000 0.000000
							CHANNELS 3 Xrotation Yrotation Zrotation
							JOINT LeftHand
							{
								OFFSET 23.009392 0.000000 0.000000
								CHANNELS 3 Xrotation Yrotation Zrotation
								JOINT LeftHandThumb1
								{
									OFFSET 3.507191 -2.063065 3.133727
									CHANNELS 3 Xrotation Yrotation Zrotation
									JOINT LeftHandThumb2
									{
										OFFSET 3.101337 -1.790558 1.790558
										CHANNELS 3 Xrotation Yrotation Zrotation
										JOINT LeftHandThumb3
										{
											OFFSET 3.058640 -1.765907 1.765906
											CHANNELS 3 Xrotation Yrotation Zrotation
											End Site
											{
												OFFSET -0.415260 3.926476 -0.049563
											}
										}
									}
								}
								JOINT LeftHandIndex1
								{
									OFFSET 11.334419 -0.901459 3.706815
									CHANNELS 3 Xrotation Yrotation Zrotation
									JOINT LeftHandIndex2
									{
										OFFSET 3.283112 0.000000 0.000000
										CHANNELS 3 Xrotation Yrotation Zrotation
										JOINT LeftHandIndex3
										{
											OFFSET 3.323853 0.000000 0.000000
											CHANNELS 3 Xrotation Yrotation Zrotation
											End Site
											{
												OFFSET -1.135597 3.097809 0.402452
											}
										}
									}
								}
								JOINT LeftHandMiddle1
								{
									OFFSET 11.335861 0.000000 0.000000
									CHANNELS 3 Xrotation Yrotation Zrotation
									JOINT LeftHandMiddle2
									{
										OFFSET 3.410492 0.000000 0.000000
										CHANNELS 3 Xrotation Yrotation Zrotation
										JOINT LeftHandMiddle3
										{
											OFFSET 3.312172 0.000000 0.000000
											CHANNELS 3 Xrotation Yrotation Zrotation
											End Site
											{
												OFFSET -1.150200 3.080154 0.400270
											}
										}
									}
								}
								JOINT LeftHandRing1
								{
									OFFSET 11.514786 -0.013176 -3.003090
									CHANNELS 3 Xrotation Yrotation Zrotation
									JOINT LeftHandRing2
									{
										OFFSET 3.053307 0.000000 0.000000
										CHANNELS 3 Xrotation Yrotation Zrotation
										JOINT LeftHandRing3
										{
											OFFSET 3.295807 0.000000 0.000000
											CHANNELS 3 Xrotation Yrotation Zrotation
											End Site
											{
												OFFSET -1.281006 3.013344 0.375733
											}
										}
									}
								}
								JOINT LeftHandPinky1
								{
									OFFSET 10.518692 -0.960396 -5.730441
									CHANNELS 3 Xrotation Yrotation Zrotation
									JOINT LeftHandPinky2
									{
										OFFSET 2.861649 0.000000 0.000000
										CHANNELS 3 Xrotation Yrotation Zrotation
										JOINT LeftHandPinky3
										{
											OFFSET 2.863380 0.000000 0.000000
											CHANNELS 3 Xrotation Yrotation Zrotation
											End Site
											{
												OFFSET -0.843597 2.711159 0.369971
											}
										}
									}
								}
							}
							JOINT LSleeve
							{
								OFFSET 6.676277 -0.344902 -1.011730
								CHANNELS 3 Xrotation Yrotation Zrotation
								End Site
								{
									OFFSET 0.000000 14.885353 0.000000
								}
							}
						}
					}
				}
				JOINT RightShoulder
				{
					OFFSET -6.197800 13.665199 -4.064700
					CHANNELS 3 Xrotation Yrotation Zrotation
					JOINT RightArm
					{
						OFFSET -7.778100 -0.187103 -1.709300
						CHANNELS 3 Xrotation Yrotation Zrotation
						JOINT RightForeArm
						{
							OFFSET -22.049376 0.000000 0.000000
							CHANNELS 3 Xrotation Yrotation Zrotation
							JOINT RightHand
							{
								OFFSET -23.009392 0.000000 0.000000
								CHANNELS 3 Xrotation Yrotation Zrotation
								JOINT RightHandThumb1
								{
									OFFSET -3.507191 -2.063065 3.133727
									CHANNELS 3 Xrotation Yrotation Zrotation
									JOINT RightHandThumb2
									{
										OFFSET -3.101337 -1.790558 1.790558
										CHANNELS 3 Xrotation Yrotation Zrotation
										JOINT RightHandThumb3
										{
											OFFSET -3.058640 -1.765907 1.765906
											CHANNELS 3 Xrotation Yrotation Zrotation
											End Site
											{
												OFFSET 0.415260 3.926476 -0.049563
											}
										}
									}
								}
								JOINT RightHandIndex1
								{
									OFFSET -11.334419 -0.901459 3.706815
									CHANNELS 3 Xrotation Yrotation Zrotation
									JOINT RightHandIndex2
									{
										OFFSET -3.283112 0.000000 0.000000
										CHANNELS 3 Xrotation Yrotation Zrotation
										JOINT RightHandIndex3
										{
											OFFSET -3.323853 0.000000 0.000000
											CHANNELS 3 Xrotation Yrotation Zrotation
											End Site
											{
												OFFSET 1.135597 3.097809 0.402452
											}
										}
									}
								}
								JOINT RightHandMiddle1
								{
									OFFSET -11.335861 0.000000 0.000000
									CHANNELS 3 Xrotation Yrotation Zrotation
									JOINT RightHandMiddle2
									{
										OFFSET -3.410492 0.000000 0.000000
										CHANNELS 3 Xrotation Yrotation Zrotation
										JOINT RightHandMiddle3
										{
											OFFSET -3.312172 0.000000 0.000000
											CHANNELS 3 Xrotation Yrotation Zrotation
											End Site
											{
												OFFSET 1.150200 3.080154 0.400270
											}
										}
									}
								}
								JOINT RightHandRing1
								{
									OFFSET -11.514786 -0.013176 -3.003090
									CHANNELS 3 Xrotation Yrotation Zrotation
									JOINT RightHandRing2
									{
										OFFSET -3.053307 0.000000 0.000000
										CHANNELS 3 Xrotation Yrotation Zrotation
										JOINT RightHandRing3
										{
											OFFSET -3.295807 0.000000 0.000000
											CHANNELS 3 Xrotation Yrotation Zrotation
											End Site
											{
												OFFSET 1.281006 3.013344 0.375733
											}
										}
									}
								}
								JOINT RightHandPinky1
								{
									OFFSET -10.518692 -0.960396 -5.730441
									CHANNELS 3 Xrotation Yrotation Zrotation
									JOINT RightHandPinky2
									{
										OFFSET -2.861649 0.000000 0.000000
										CHANNELS 3 Xrotation Yrotation Zrotation
										JOINT RightHandPinky3
										{
											OFFSET -2.863380 0.000000 0.000000
											CHANNELS 3 Xrotation Yrotation Zrotation
											End Site
											{
												OFFSET 0.843597 2.711159 0.369971
											}
										}
									}
								}
							}
							JOINT RSleeve
							{
								OFFSET -6.676277 -0.344902 -1.011730
								CHANNELS 3 Xrotation Yrotation Zrotation
								End Site
								{
									OFFSET 0.000000 14.885353 0.000000
								}
							}
						}
					}
				}
				JOINT Backpack
				{
					OFFSET 0.000000 -2.471497 36.677502
					CHANNELS 3 Xrotation Yrotation Zrotation
					End Site
					{
						OFFSET 0.000000 20.427315 0.000000
					}
				}
				JOINT Hood
				{
					OFFSET 0.000000 18.754097 -10.431000
					CHANNELS 3 Xrotation Yrotation Zrotation
					JOINT Hood1
					{
						OFFSET 0.000000 -5.011002 -7.685901
						CHANNELS 3 Xrotation Yrotation Zrotation
						End Site
						{
							OFFSET 0.000000 9.175140 0.000000
						}
					}
				}
				JOINT LHoodieString
				{
					OFFSET 5.250500 16.397697 3.089900
					CHANNELS 3 Xrotation Yrotation Zrotation
					JOINT LHoodieString1
					{
						OFFSET 0.257700 -6.364304 3.694600
						CHANNELS 3 Xrotation Yrotation Zrotation
						JOINT LHoodieString2
						{
							OFFSET 0.000000 -9.643799 2.679100
							CHANNELS 3 Xrotation Yrotation Zrotation
							End Site
							{
								OFFSET 0.000000 10.009018 0.000000
							}
						}
					}
				}
				JOINT RHoodieString
				{
					OFFSET -5.250500 16.397697 3.089900
					CHANNELS 3 Xrotation Yrotation Zrotation
					JOINT RHoodieString1
					{
						OFFSET -0.257700 -6.364304 3.694600
						CHANNELS 3 Xrotation Yrotation Zrotation
						JOINT RHoodieString2
						{
							OFFSET 0.000000 -9.643799 2.679100
							CHANNELS 3 Xrotation Yrotation Zrotation
							End Site
							{
								OFFSET 0.000000 10.009018 0.000000
							}
						}
					}
				}
			}
			JOINT LBackpack_Strap
			{
				OFFSET 15.223200 -7.719803 -6.610900
				CHANNELS 3 Xrotation Yrotation Zrotation
				End Site
				{
					OFFSET 0.000000 16.040596 0.000000
				}
			}
			JOINT RBackpack_Strap
			{
				OFFSET -15.223000 -7.719803 -6.610900
				CHANNELS 3 Xrotation Yrotation Zrotation
				End Site
				{
					OFFSET 0.000000 16.040596 0.000000
				}
			}
		}
	}
	JOINT BoyFacialAnim_Joint
	{
		OFFSET 1.000000 -82.208099 -1.550900
		CHANNELS 3 Xrotation Yrotation Zrotation
		End Site
		{
			OFFSET 0.000000 30.012791 0.000000
		}
	}
}
MOTION
Frames: 4
Frame Time: 0.033333
0.101424 10.948738 3.369614 82.231291 -3.775056 -2.336856 -0.000000 -0.000000 0.000000 -12.793163 33.009287 19.887575 24.376595 -9.251944 -9.571005 -11.725695 12.584292 24.454741 0.000001 0.000003 -0.000000 0.000001 0.000003 -0.000001 -0.000000 -0.000003 0.000000 -41.334495 -39.402866 -49.973680 29.637892 -8.128956 -1.354915 -7.400128 7.496857 17.081685 -0.000000 -0.000001 -0.000001 -0.000000 -0.000001 -0.000001 -0.000001 0.000001 0.000000 5.784911 -2.071930 -0.489022 -4.474801 -6.139425 1.186897 -3.957808 -6.378225 0.363819 -32.785752 -1.620681 15.942406 -5.976220 25.764532 -4.990814 -0.000001 0.000001 0.000000 -0.000001 0.000001 0.000000 -0.000001 0.000001 0.000000 -32.607801 -38.770138 28.873108 -78.415148 -10.442903 -40.906829 0.000027 -51.418214 0.000034 -117.920593 15.461803 25.258169 5.235250 9.947137 2.830957 19.467299 -1.857208 7.797113 -0.000001 -0.000001 0.000002 -0.419611 3.628517 -36.409553 2.959369 5.088711 -60.339039 -0.000000 0.000000 -0.000003 0.353506 5.460582 -52.339958 3.390274 5.310071 -65.091361 0.000005 -0.000000 0.000000 0.073505 5.821195 -61.103651 4.026392 5.560207 -71.799488 -0.000003 -0.000002 -0.000003 -6.477879 4.628346 -72.691197 3.289262 5.262191 -63.994877 0.000001 -0.000001 -0.000004 -0.000000 -0.000001 0.000002 -20.694027 19.898564 13.973866 -55.359055 47.915577 39.511678 0.000095 110.662131 -0.000082 -42.201867 -9.380417 -53.873971 8.594470 -5.176150 11.323318 21.291663 -17.580412 -18.684799 -0.000002 -0.000002 0.000000 -0.826309 1.793092 11.147016 0.708282 -2.470830 31.985506 -0.000000 0.000000 -0.000000 3.443014 -7.278595 50.216575 6.304018 -4.356868 110.729613 0.000001 0.000001 -0.000002 -3.198297 -2.569491 56.048129 5.403735 -4.597050 99.234616 -0.000000 0.000000 0.000002 -3.581918 -3.318151 63.239000 4.073594 -4.620560 82.793477 -0.000001 -0.000001 0.000002 0.000001 -0.000000 -0.000004 0.000000 -0.000001 -0.000000 0.000000 -0.000001 -0.000000 0.000000 -0.000001 -0.000000 0.000000 -0.000001 -0.000000 0.000000 -0.000001 -0.000000 0.000000 0.000001 0.000000 0.000000 -0.000001 -0.000000 0.000000 -0.000001 -0.000000 0.000000 0.000001 0.000000 0.000000 0.000000 -0.000000 0.000000 0.000000 -0.000000 -0.000000 -0.000000 0.000000 
0.064256 10.957733 3.416794 82.372375 -1.826453 -2.176680 -0.000000 -0.000000 0.000000 -11.582062 33.232139 17.858172 22.815834 -8.266710 -9.993661 -10.691923 14.016641 25.366614 0.000000 -0.000002 -0.000000 0.000000 -0.000002 -0.000001 0.000000 0.000001 0.000000 -38.056359 -41.570150 -48.449390 25.911993 -12.946187 -0.919213 -8.957767 6.293513 18.849855 -0.000002 -0.000001 0.000001 -0.000002 -0.000001 0.000001 -0.000002 0.000003 -0.000001 5.787926 -3.798296 -0.080299 -4.173497 -6.606220 1.241353 -3.671890 -6.843671 0.434249 -33.005031 -1.177428 15.438652 -5.842154 26.126117 -6.047707 0.000003 -0.000000 0.000001 0.000003 -0.000000 0.000001 0.000003 -0.000000 0.000001 -35.430018 -37.116331 24.999404 -81.032688 -13.023788 -42.271645 -0.000036 -49.890475 -0.000038 -117.109645 16.681038 26.607536 5.291038 9.337973 2.697056 19.085277 -1.931097 7.851985 -0.000004 -0.000001 -0.000001 -0.543975 3.445398 -36.252735 2.974072 5.097027 -60.504732 -0.000003 -0.000001 -0.000004 -0.599738 4.791836 -53.151993 3.528269 5.371723 -66.573663 0.000003 0.000001 0.000000 0.576737 6.160238 -62.186673 4.255291 5.629989 -74.146935 0.000002 0.000000 -0.000000 -6.208878 4.926899 -73.752417 3.314464 5.274377 -64.269348 0.000002 0.000004 -0.000001 -0.000000 0.000002 0.000001 -20.633510 18.636852 10.573353 -60.674981 47.861803 45.875819 0.000083 110.531128 -0.000095 -41.772993 -10.774966 -54.398686 9.054356 -4.512564 11.915455 21.938417 -19.107239 -18.152121 -0.000004 0.000000 0.000001 -0.709818 0.787665 12.176759 0.759466 -2.550911 33.154151 -0.000001 0.000000 0.000005 3.111067 -6.943470 51.801712 6.318111 -4.351527 110.915237 0.000001 0.000000 0.000002 -3.694450 -2.382370 57.068864 5.416037 -4.595054 99.388104 0.000001 0.000000 0.000006 -4.059978 -3.186842 64.000587 4.080431 -4.621422 82.878376 0.000001 -0.000000 0.000000 0.000002 0.000001 -0.000001 -0.000001 -0.000001 -0.000000 -0.000001 -0.000001 -0.000000 -0.000001 -0.000001 -0.000000 -0.000001 -0.000001 -0.000000 -0.000001 -0.000001 -0.000000 -0.000001 0.000001 0.000000 -0.000001 -0.000001 -0.000000 -0.000001 -0.000001 -0.000000 -0.000001 0.000001 0.000000 0.000000 -0.000000 0.000000 0.000000 -0.000000 0.000000 -0.000000 -0.000000 0.000000 
-0.095058 10.848305 3.452972 82.510748 -0.036242 -2.059220 0.000000 0.000000 0.000000 -10.500267 33.608878 16.013018 21.171387 -6.947330 -9.977989 -9.709776 16.204767 26.445417 -0.000000 -0.000001 -0.000002 -0.000000 -0.000001 -0.000002 0.000001 -0.000003 0.000001 -34.465719 -43.649946 -46.256671 22.520022 -15.852859 -0.269338 -11.193450 2.195483 19.907266 0.000000 0.000001 -0.000000 0.000000 0.000001 -0.000000 -0.000001 -0.000000 -0.000001 5.750636 -5.491995 0.396021 -3.859971 -7.064333 1.338948 -3.372710 -7.300344 0.543917 -33.225069 -0.815612 14.985811 -5.721192 25.999767 -6.710406 0.000003 0.000000 0.000000 0.000003 0.000000 0.000000 0.000003 0.000000 0.000000 -37.636303 -35.759404 21.818046 -83.241284 -13.106354 -42.711680 -0.000003 -51.732105 0.000001 -115.839216 15.923268 29.658809 5.324401 7.974630 2.651463 18.216615 -2.059484 7.851811 -0.000003 -0.000000 0.000002 -0.786050 3.066574 -35.786288 3.013444 5.119022 -60.946925 0.000002 0.000001 -0.000003 -1.733873 3.996505 -53.663410 3.799624 5.480823 -69.442643 0.000004 0.000000 0.000000 1.297116 6.600033 -63.630281 4.448323 5.680990 -76.105547 0.000001 -0.000002 0.000001 -6.569509 4.878725 -74.031539 3.329253 5.281437 -64.430062 0.000002 -0.000001 -0.000004 0.000000 0.000000 0.000000 -20.954623 18.054056 8.013106 -65.696612 46.242221 51.605016 -0.000031 111.097480 0.000047 -41.930299 -13.690558 -51.612461 9.223931 -3.996883 12.259012 22.621026 -20.365923 -17.697725 -0.000007 0.000001 0.000000 -0.568595 -0.093792 12.933967 0.804760 -2.618895 34.158579 0.000000 0.000001 0.000004 2.668468 -6.572552 52.924165 6.344395 -4.341417 111.261999 0.000001 0.000001 0.000002 -4.123546 -2.237631 57.941075 5.456795 -4.588144 99.897322 0.000000 0.000000 -0.000003 -4.837052 -2.991471 65.151242 4.103368 -4.624205 83.162751 -0.000001 -0.000000 0.000000 -0.000002 0.000001 -0.000003 -0.000001 -0.000001 -0.000000 -0.000001 -0.000001 -0.000000 -0.000001 -0.000001 -0.000000 -0.000001 -0.000001 -0.000000 -0.000001 -0.000001 -0.000000 -0.000001 -0.000001 0.000000 -0.000001 -0.000001 -0.000000 -0.000001 -0.000001 -0.000000 -0.000001 -0.000001 0.000000 -0.000001 0.000001 -0.000000 -0.000001 0.000001 -0.000000 0.000000 0.000000 0.000000 
-0.305468 10.704254 3.513702 82.372717 1.010680 -1.964663 -0.000000 0.000000 0.000000 -8.410705 34.233871 13.965875 18.347570 -6.076822 -10.007475 -9.660877 20.635704 27.954711 0.000000 -0.000001 -0.000001 0.000000 -0.000001 -0.000002 0.000000 -0.000002 -0.000001 -31.040765 -45.197435 -43.207271 20.301510 -15.841237 0.071378 -11.993943 -3.486212 19.356970 -0.000000 0.000000 -0.000000 -0.000000 0.000000 -0.000000 -0.000001 -0.000002 0.000000 5.758178 -6.492948 1.028411 -3.613693 -7.345932 1.417927 -3.126584 -7.582408 0.623901 -33.387536 -0.626982 14.764222 -5.880048 25.820026 -7.017972 -0.000004 0.000001 -0.000000 -0.000004 0.000001 -0.000000 -0.000004 0.000001 -0.000000 -39.105131 -34.826482 19.603333 -85.763906 -12.401723 -43.764505 0.000052 -53.426382 0.000039 -113.810575 14.641632 32.481569 3.896273 5.428656 3.319753 17.341318 -1.273271 7.403257 -0.000000 0.000002 -0.000000 -1.282076 2.152236 -34.084778 3.070081 5.149962 -61.579701 -0.000003 -0.000001 -0.000002 -2.755281 3.174572 -53.213806 4.160357 5.602277 -73.176809 0.000001 -0.000000 0.000000 2.266526 7.114794 -65.205296 4.748344 5.746563 -79.118418 -0.000003 0.000000 -0.000002 -7.046280 4.670605 -73.710452 3.332373 5.282912 -64.463920 -0.000001 -0.000000 -0.000000 0.000000 -0.000004 0.000000 -21.508102 18.207338 6.885765 -69.468276 43.442366 55.573469 0.000075 112.073965 -0.000084 -42.367008 -17.946833 -47.346465 8.624336 -3.553671 11.804477 23.690603 -21.749018 -17.078422 -0.000003 0.000001 0.000001 -0.431030 -0.933068 14.089284 0.876123 -2.720967 35.690334 -0.000000 -0.000000 0.000003 2.110499 -6.147328 54.352115 6.380326 -4.327311 111.737414 -0.000000 0.000001 -0.000002 -4.560350 -2.172267 59.221353 5.573167 -4.566397 101.355308 -0.000000 -0.000000 0.000002 -6.132204 -2.838272 67.559279 4.147185 -4.629228 83.706195 0.000000 -0.000000 0.000005 0.000001 -0.000002 -0.000001 0.000002 -0.000001 0.000000 0.000002 -0.000001 0.000000 0.000002 -0.000001 0.000000 0.000002 -0.000001 0.000000 0.000002 -0.000001 0.000000 0.000002 -0.000001 -0.000000 0.000002 -0.000001 0.000000 0.000002 -0.000001 0.000000 0.000002 -0.000001 -0.000000 -0.000001 0.000001 0.000000 -0.000001 0.000001 0.000000 -0.000000 0.000000 0.000000 
